<mxfile host="app.diagrams.net" agent="Mozilla/5.0 (Windows NT 10.0; Win64; x64) AppleWebKit/537.36 (KHTML, like Gecko) Chrome/134.0.0.0 Safari/537.36 Edg/134.0.0.0" version="26.1.1">
  <diagram id="WI9T0HZ2pTsCkuznbFz-" name="Page-1">
    <mxGraphModel dx="3474" dy="2481" grid="1" gridSize="10" guides="1" tooltips="1" connect="1" arrows="1" fold="1" page="1" pageScale="1" pageWidth="827" pageHeight="1169" math="0" shadow="0">
      <root>
        <mxCell id="0" />
        <mxCell id="1" parent="0" />
        <mxCell id="3ca2uD15W2ncGJFMDEbE-17" style="edgeStyle=orthogonalEdgeStyle;rounded=0;orthogonalLoop=1;jettySize=auto;html=1;entryX=1.006;entryY=0.47;entryDx=0;entryDy=0;entryPerimeter=0;strokeWidth=3;" edge="1" parent="1" source="3ca2uD15W2ncGJFMDEbE-1" target="3ca2uD15W2ncGJFMDEbE-2">
          <mxGeometry relative="1" as="geometry">
            <mxPoint x="90.00000000000023" y="240.0000000000001" as="targetPoint" />
          </mxGeometry>
        </mxCell>
        <mxCell id="3ca2uD15W2ncGJFMDEbE-22" value="&lt;h2&gt;&lt;font&gt;QA Project&lt;/font&gt;&lt;/h2&gt;" style="edgeLabel;html=1;align=center;verticalAlign=middle;resizable=0;points=[];" vertex="1" connectable="0" parent="3ca2uD15W2ncGJFMDEbE-17">
          <mxGeometry x="0.1246" y="1" relative="1" as="geometry">
            <mxPoint as="offset" />
          </mxGeometry>
        </mxCell>
        <mxCell id="3ca2uD15W2ncGJFMDEbE-1" value="" style="image;sketch=0;aspect=fixed;html=1;points=[];align=center;fontSize=12;image=img/lib/mscae/Azure_Artifacts.svg;" vertex="1" parent="1">
          <mxGeometry x="220" y="213" width="50" height="50" as="geometry" />
        </mxCell>
        <mxCell id="3ca2uD15W2ncGJFMDEbE-2" value="" style="image;sketch=0;aspect=fixed;html=1;points=[];align=center;fontSize=12;image=img/lib/mscae/Azure_DevOps.svg;" vertex="1" parent="1">
          <mxGeometry x="10" y="214" width="50" height="50" as="geometry" />
        </mxCell>
        <mxCell id="3ca2uD15W2ncGJFMDEbE-3" value="" style="image;sketch=0;aspect=fixed;html=1;points=[];align=center;fontSize=12;image=img/lib/mscae/Azure_Artifacts.svg;" vertex="1" parent="1">
          <mxGeometry x="220" y="340" width="50" height="50" as="geometry" />
        </mxCell>
        <mxCell id="3ca2uD15W2ncGJFMDEbE-9" value="" style="image;sketch=0;aspect=fixed;html=1;points=[];align=center;fontSize=12;image=img/lib/mscae/Azure_Artifacts.svg;" vertex="1" parent="1">
          <mxGeometry x="220" y="80" width="50" height="50" as="geometry" />
        </mxCell>
        <mxCell id="3ca2uD15W2ncGJFMDEbE-10" style="edgeStyle=orthogonalEdgeStyle;rounded=0;orthogonalLoop=1;jettySize=auto;html=1;entryX=0.48;entryY=-0.063;entryDx=0;entryDy=0;entryPerimeter=0;strokeWidth=3;" edge="1" parent="1" source="3ca2uD15W2ncGJFMDEbE-9" target="3ca2uD15W2ncGJFMDEbE-2">
          <mxGeometry relative="1" as="geometry" />
        </mxCell>
        <mxCell id="3ca2uD15W2ncGJFMDEbE-21" value="&lt;h2&gt;Dev Project&lt;/h2&gt;" style="edgeLabel;html=1;align=center;verticalAlign=middle;resizable=0;points=[];" vertex="1" connectable="0" parent="3ca2uD15W2ncGJFMDEbE-10">
          <mxGeometry x="-0.4294" relative="1" as="geometry">
            <mxPoint as="offset" />
          </mxGeometry>
        </mxCell>
        <mxCell id="3ca2uD15W2ncGJFMDEbE-15" style="edgeStyle=orthogonalEdgeStyle;rounded=0;orthogonalLoop=1;jettySize=auto;html=1;entryX=0.52;entryY=1.017;entryDx=0;entryDy=0;entryPerimeter=0;strokeWidth=3;" edge="1" parent="1" source="3ca2uD15W2ncGJFMDEbE-3" target="3ca2uD15W2ncGJFMDEbE-2">
          <mxGeometry relative="1" as="geometry" />
        </mxCell>
        <mxCell id="3ca2uD15W2ncGJFMDEbE-23" value="&lt;h2&gt;Sand/Prod Project&lt;/h2&gt;" style="edgeLabel;html=1;align=center;verticalAlign=middle;resizable=0;points=[];" vertex="1" connectable="0" parent="3ca2uD15W2ncGJFMDEbE-15">
          <mxGeometry x="-0.3763" relative="1" as="geometry">
            <mxPoint as="offset" />
          </mxGeometry>
        </mxCell>
        <mxCell id="3ca2uD15W2ncGJFMDEbE-68" value="" style="group;strokeWidth=3;perimeterSpacing=3;" vertex="1" connectable="0" parent="1">
          <mxGeometry x="490" y="-394" width="750" height="380" as="geometry" />
        </mxCell>
        <mxCell id="3ca2uD15W2ncGJFMDEbE-65" value="" style="rounded=1;whiteSpace=wrap;html=1;arcSize=16;" vertex="1" parent="3ca2uD15W2ncGJFMDEbE-68">
          <mxGeometry width="750" height="380" as="geometry" />
        </mxCell>
        <mxCell id="3ca2uD15W2ncGJFMDEbE-29" value="" style="group" vertex="1" connectable="0" parent="3ca2uD15W2ncGJFMDEbE-68">
          <mxGeometry x="40" y="80" width="300" height="250" as="geometry" />
        </mxCell>
        <mxCell id="3ca2uD15W2ncGJFMDEbE-28" value="" style="rounded=1;whiteSpace=wrap;html=1;" vertex="1" parent="3ca2uD15W2ncGJFMDEbE-29">
          <mxGeometry width="300" height="250" as="geometry" />
        </mxCell>
        <mxCell id="3ca2uD15W2ncGJFMDEbE-8" value="" style="shape=image;verticalLabelPosition=bottom;labelBackgroundColor=#ffffff;verticalAlign=top;aspect=fixed;imageAspect=0;image=data:image/svg+xml,PHN2ZyB4bWxuczpkYz0iaHR0cDovL3B1cmwub3JnL2RjL2VsZW1lbnRzLzEuMS8iIHhtbG5zOmNjPSJodHRwOi8vY3JlYXRpdmVjb21tb25zLm9yZy9ucyMiIHhtbG5zOnJkZj0iaHR0cDovL3d3dy53My5vcmcvMTk5OS8wMi8yMi1yZGYtc3ludGF4LW5zIyIgeG1sbnM6c3ZnPSJodHRwOi8vd3d3LnczLm9yZy8yMDAwL3N2ZyIgeG1sbnM9Imh0dHA6Ly93d3cudzMub3JnLzIwMDAvc3ZnIiB4bWxuczpzb2RpcG9kaT0iaHR0cDovL3NvZGlwb2RpLnNvdXJjZWZvcmdlLm5ldC9EVEQvc29kaXBvZGktMC5kdGQiIHhtbG5zOmlua3NjYXBlPSJodHRwOi8vd3d3Lmlua3NjYXBlLm9yZy9uYW1lc3BhY2VzL2lua3NjYXBlIiB2ZXJzaW9uPSIxLjEiIGlkPSJzdmc5NzA4NCIgaW5rc2NhcGU6dmVyc2lvbj0iMC45Mi4zICgyNDA1NTQ2LCAyMDE4LTAzLTExKSIgc29kaXBvZGk6ZG9jbmFtZT0ic3FsX2RhdGFiYXNlLnN2ZyIgeD0iMHB4IiB5PSIwcHgiIHZpZXdCb3g9IjAgMCA3NS41MiAxMDAuMTEiIHhtbDpzcGFjZT0icHJlc2VydmUiIHdpZHRoPSI3NS41MTk5OTciIGhlaWdodD0iMTAwLjExIj48bWV0YWRhdGEgaWQ9Im1ldGFkYXRhMTcyNiI+PHJkZjpSREY+PGNjOldvcmsgcmRmOmFib3V0PSIiPjxkYzpmb3JtYXQ+aW1hZ2Uvc3ZnK3htbDwvZGM6Zm9ybWF0PjxkYzp0eXBlIHJkZjpyZXNvdXJjZT0iaHR0cDovL3B1cmwub3JnL2RjL2RjbWl0eXBlL1N0aWxsSW1hZ2UiLz48ZGM6dGl0bGUvPjwvY2M6V29yaz48L3JkZjpSREY+PC9tZXRhZGF0YT48ZGVmcyBpZD0iZGVmczE3MjQiPiYjeGE7CSYjeGE7JiN4YTsJJiN4YTsmI3hhOwkmI3hhOyYjeGE7CSYjeGE7JiN4YTsJJiN4YTsmI3hhOwkmI3hhOyYjeGE7CSYjeGE7JiN4YTsJJiN4YTsmI3hhOwkmI3hhOyYjeGE7CQkmI3hhOwkmI3hhOwkJJiN4YTsJJiN4YTsJCSYjeGE7CSYjeGE7CQkmI3hhOwkmI3hhOwkJJiN4YTsJJiN4YTsJCSYjeGE7CSYjeGE7CQkmI3hhOwkmI3hhOwkJJiN4YTsJPC9kZWZzPiYjeGE7PGZpbHRlciBpZD0iZmlsdGVyXzIiPiYjeGE7CTxmZUdhdXNzaWFuQmx1ciBpZD0iZmVHYXVzc2lhbkJsdXI5NzAwMSIgc3RkRGV2aWF0aW9uPSIyIi8+JiN4YTs8L2ZpbHRlcj4mI3hhOzxzb2RpcG9kaTpuYW1lZHZpZXcgYm9yZGVyY29sb3I9IiM2NjY2NjYiIGJvcmRlcm9wYWNpdHk9IjEiIGZpdC1tYXJnaW4tYm90dG9tPSIwIiBmaXQtbWFyZ2luLWxlZnQ9IjAiIGZpdC1tYXJnaW4tcmlnaHQ9IjAiIGZpdC1tYXJnaW4tdG9wPSIwIiBncmlkdG9sZXJhbmNlPSIxMCIgZ3VpZGV0b2xlcmFuY2U9IjEwIiBpZD0ibmFtZWR2aWV3OTcwODYiIGlua3NjYXBlOmN1cnJlbnQtbGF5ZXI9InN2Zzk3MDg0IiBpbmtzY2FwZTpjeD0iLTQ2LjkyMDI2NSIgaW5rc2NhcGU6Y3k9IjM4LjczMTY2NiIgaW5rc2NhcGU6cGFnZW9wYWNpdHk9IjAiIGlua3NjYXBlOnBhZ2VzaGFkb3c9IjIiIGlua3NjYXBlOndpbmRvdy1oZWlnaHQ9IjEwMTciIGlua3NjYXBlOndpbmRvdy1tYXhpbWl6ZWQ9IjEiIGlua3NjYXBlOndpbmRvdy13aWR0aD0iMTkyMCIgaW5rc2NhcGU6d2luZG93LXg9Ii04IiBpbmtzY2FwZTp3aW5kb3cteT0iLTgiIGlua3NjYXBlOnpvb209IjUuMjE5MzE5NyIgb2JqZWN0dG9sZXJhbmNlPSIxMCIgcGFnZWNvbG9yPSIjZmZmZmZmIiBzaG93Z3JpZD0iZmFsc2UiPiYjeGE7CTwvc29kaXBvZGk6bmFtZWR2aWV3PiYjeGE7JiN4YTs8cGF0aCBpZD0icGF0aDk3MDE0IiBpbmtzY2FwZTpjb25uZWN0b3ItY3VydmF0dXJlPSIwIiBzdHlsZT0iZmlsbDojMDA3MmM2IiBkPSJtIDAsMTMuNjggdiA3Mi43NSBjIDAsNy41NSAxNi45MSwxMy42OCAzNy43NiwxMy42OCBWIDEzLjY4IGMgMCwwIC0zNy43NiwwIC0zNy43NiwwIHoiLz4mI3hhOyYjeGE7PHBhdGggaWQ9InBhdGg5NzAyMiIgaW5rc2NhcGU6Y29ubmVjdG9yLWN1cnZhdHVyZT0iMCIgc3R5bGU9ImZpbGw6IzAwNzJjNiIgZD0ibSAzNy4yNCwxMDAuMTEgaCAwLjUyIGMgMjAuODUsMCAzNy43NiwtNi4xMyAzNy43NiwtMTMuNjggViAxMy42OCBIIDM3LjI0IFoiLz4mI3hhOyYjeGE7PHBhdGggaWQ9InBhdGg5NzAzMCIgaW5rc2NhcGU6Y29ubmVjdG9yLWN1cnZhdHVyZT0iMCIgc3R5bGU9ImZpbGw6I2ZmZmZmZjtmaWxsLW9wYWNpdHk6MC4xNSIgZD0ibSAzNy4yNCwxMDAuMTEgaCAwLjUyIGMgMjAuODUsMCAzNy43NiwtNi4xMyAzNy43NiwtMTMuNjggViAxMy42OCBIIDM3LjI0IFoiLz4mI3hhOyYjeGE7PHBhdGggaWQ9InBhdGg5NzAzOCIgaW5rc2NhcGU6Y29ubmVjdG9yLWN1cnZhdHVyZT0iMCIgc3R5bGU9ImZpbGw6I2ZmZmZmZiIgZD0ibSA3NS41MiwxMy42OCBjIDAsNy41NSAtMTYuOTEsMTMuNjggLTM3Ljc2LDEzLjY4IEMgMTYuOTEsMjcuMzYgMCwyMS4yMyAwLDEzLjY4IDAsNi4xMyAxNi45MSwwIDM3Ljc2LDAgNTguNjEsMCA3NS41Miw2LjEzIDc1LjUyLDEzLjY4IFoiLz4mI3hhOyYjeGE7PHBhdGggaWQ9InBhdGg5NzA0NiIgaW5rc2NhcGU6Y29ubmVjdG9yLWN1cnZhdHVyZT0iMCIgc3R5bGU9ImZpbGw6IzdmYmEwMCIgZD0ibSA2Ny44LDEyLjg5IGMgMCw0Ljk5IC0xMy40NSw5LjAzIC0zMC4wNCw5LjAzIC0xNi41OSwwIC0zMC4wNCwtNC4wNCAtMzAuMDQsLTkuMDMgMCwtNC45OCAxMy40NSwtOS4wMiAzMC4wNCwtOS4wMiAxNi41OSwwIDMwLjA0LDQuMDQgMzAuMDQsOS4wMiB6Ii8+JiN4YTsmI3hhOzxwYXRoIGlkPSJwYXRoOTcwNTQiIGlua3NjYXBlOmNvbm5lY3Rvci1jdXJ2YXR1cmU9IjAiIHN0eWxlPSJmaWxsOiNiOGQ0MzIiIGQ9Ik0gNjEuNTEsMTguNDEgQyA2NS40NCwxNi44OCA2Ny44LDE0Ljk3IDY3LjgsMTIuOSA2Ny44LDcuOTEgNTQuMzUsMy44NyAzNy43NiwzLjg3IDIxLjE3LDMuODcgNy43Miw3LjkxIDcuNzIsMTIuOSBjIDAsMi4wNyAyLjM2LDMuOTggNi4zLDUuNTEgNS40OSwtMi4xNCAxNC4wNywtMy41MSAyMy43NCwtMy41MSA5LjY3LDAgMTguMjUsMS4zNyAyMy43NSwzLjUxIHoiLz4mI3hhOyYjeGE7PHBhdGggaWQ9InBhdGg5NzA2MiIgaW5rc2NhcGU6Y29ubmVjdG9yLWN1cnZhdHVyZT0iMCIgc3R5bGU9ImZpbGw6I2ZmZmZmZiIgZD0ibSAyNS43Nyw2NC4xOCBjIDAsMi4yNiAtMC44Miw0LjAxIC0yLjQ2LDUuMjUgLTEuNjQsMS4yNCAtMy45LDEuODcgLTYuNzksMS44NyAtMi40NiwwIC00LjUyLC0wLjQ1IC02LjE3LC0xLjMzIHYgLTUuMzIgYyAxLjksMS42MSA0LDIuNDIgNi4zLDIuNDIgMS4xLDAgMS45NiwtMC4yMiAyLjU3LC0wLjY2IDAuNiwtMC40NCAwLjksLTEuMDMgMC45LC0xLjc2IDAsLTAuNzIgLTAuMjksLTEuMzUgLTAuODcsLTEuODggLTAuNTgsLTAuNTMgLTEuNzcsLTEuMjIgLTMuNTUsLTIuMDYgLTMuNjMsLTEuNzEgLTUuNDUsLTQuMDQgLTUuNDUsLTYuOTggMCwtMi4xNCAwLjc5LC0zLjg1IDIuMzgsLTUuMTQgMS41OCwtMS4yOSAzLjY5LC0xLjk0IDYuMzEsLTEuOTQgMi4zMywwIDQuMjUsMC4zMSA1Ljc5LDAuOTEgdiA0Ljk3IGMgLTEuNjEsLTEuMTEgLTMuNDQsLTEuNjYgLTUuNDksLTEuNjYgLTEuMDMsMCAtMS44NCwwLjIyIC0yLjQ0LDAuNjYgLTAuNiwwLjQzIC0wLjksMS4wMiAtMC45LDEuNzUgMCwwLjc1IDAuMjQsMS4zNyAwLjczLDEuODUgMC40OCwwLjQ4IDEuNDcsMS4wOCAyLjk2LDEuNzkgMi4yMywxLjA1IDMuODIsMi4xMiA0Ljc2LDMuMjEgMC45NSwxLjA4IDEuNDIsMi40NCAxLjQyLDQuMDUgeiIvPiYjeGE7JiN4YTs8cGF0aCBpZD0icGF0aDk3MDcwIiBpbmtzY2FwZTpjb25uZWN0b3ItY3VydmF0dXJlPSIwIiBzdHlsZT0iZmlsbDojZmZmZmZmIiBkPSJtIDUxLjQxLDU4Ljc5IGMgMCwyLjgxIC0wLjY0LDUuMjQgLTEuOTEsNy4zIC0xLjI4LDIuMDYgLTMuMDcsMy41IC01LjM5LDQuMzQgbCA2LjkyLDYuNCBIIDQ0LjA1IEwgMzkuMTEsNzEuMjkgQyAzNyw3MS4yMSAzNS4wOSw3MC42NSAzMy4zOSw2OS42MSBjIC0xLjcsLTEuMDQgLTMuMDIsLTIuNDcgLTMuOTQsLTQuMjggLTAuOTMsLTEuODEgLTEuMzksLTMuODMgLTEuMzksLTYuMDUgMCwtMi40NyAwLjUsLTQuNjggMS41LC02LjYxIDEuMDEsLTEuOTMgMi40MSwtMy40MiA0LjIzLC00LjQ2IDEuODIsLTEuMDQgMy45LC0xLjU2IDYuMjUsLTEuNTYgMi4xOSwwIDQuMTYsMC41IDUuODksMS41MSAxLjczLDEuMDEgMy4wOCwyLjQ0IDQuMDQsNC4zIDAuOTYsMS44NiAxLjQ0LDMuOTcgMS40NCw2LjMzIHogbSAtNS42NSwwLjMgYyAwLC0yLjQxIC0wLjUyLC00LjMyIC0xLjU4LC01LjcyIC0xLjA1LC0xLjQgLTIuNDksLTIuMSAtNC4zMiwtMi4xIC0xLjg2LDAgLTMuMzUsMC43IC00LjQ3LDIuMSAtMS4xMiwxLjQxIC0xLjY4LDMuMjggLTEuNjgsNS42MiAwLDIuMzMgMC41NSw0LjE5IDEuNjUsNS41OCAxLjA5LDEuMzkgMi41NSwyLjA4IDQuMzYsMi4wOCAxLjg2LDAgMy4zMiwtMC42NyA0LjQxLC0yLjAyIDEuMDksLTEuMzQgMS42MywtMy4xOSAxLjYzLC01LjU0IHoiLz4mI3hhOyYjeGE7PHBhdGggaWQ9InBhdGg5NzA3OCIgaW5rc2NhcGU6Y29ubmVjdG9yLWN1cnZhdHVyZT0iMCIgc3R5bGU9ImZpbGw6I2ZmZmZmZiIgZD0iTSA2OS41NCw3MC44OCBIIDU1LjM1IFYgNDcuMDUgaCA1LjM3IHYgMTkuNDcgaCA4LjgyIHoiLz4mI3hhOzwvc3ZnPg==;" vertex="1" parent="3ca2uD15W2ncGJFMDEbE-29">
          <mxGeometry x="129.5" y="30" width="41" height="53" as="geometry" />
        </mxCell>
        <mxCell id="3ca2uD15W2ncGJFMDEbE-27" style="edgeStyle=orthogonalEdgeStyle;rounded=0;orthogonalLoop=1;jettySize=auto;html=1;entryX=0.5;entryY=1;entryDx=0;entryDy=0;" edge="1" parent="3ca2uD15W2ncGJFMDEbE-29" source="3ca2uD15W2ncGJFMDEbE-26" target="3ca2uD15W2ncGJFMDEbE-8">
          <mxGeometry relative="1" as="geometry" />
        </mxCell>
        <mxCell id="3ca2uD15W2ncGJFMDEbE-26" value="&lt;h2&gt;&lt;b&gt;&lt;font style=&quot;font-size: 14px;&quot;&gt;Schema Contract Repository Service&lt;/font&gt;&lt;/b&gt;&lt;/h2&gt;" style="aspect=fixed;sketch=0;html=1;dashed=0;whitespace=wrap;verticalLabelPosition=bottom;verticalAlign=top;fillColor=#2875E2;strokeColor=#ffffff;points=[[0.005,0.63,0],[0.1,0.2,0],[0.9,0.2,0],[0.5,0,0],[0.995,0.63,0],[0.72,0.99,0],[0.5,1,0],[0.28,0.99,0]];shape=mxgraph.kubernetes.icon2;prIcon=api" vertex="1" parent="3ca2uD15W2ncGJFMDEbE-29">
          <mxGeometry x="125" y="120" width="50" height="48" as="geometry" />
        </mxCell>
        <mxCell id="3ca2uD15W2ncGJFMDEbE-47" value="" style="group" vertex="1" connectable="0" parent="3ca2uD15W2ncGJFMDEbE-68">
          <mxGeometry x="410" y="80" width="300" height="250" as="geometry" />
        </mxCell>
        <mxCell id="3ca2uD15W2ncGJFMDEbE-66" style="edgeStyle=orthogonalEdgeStyle;rounded=0;orthogonalLoop=1;jettySize=auto;html=1;exitX=0;exitY=0.5;exitDx=0;exitDy=0;strokeWidth=3;" edge="1" parent="3ca2uD15W2ncGJFMDEbE-47" source="3ca2uD15W2ncGJFMDEbE-48">
          <mxGeometry relative="1" as="geometry">
            <mxPoint x="-70" y="124.66666666666652" as="targetPoint" />
          </mxGeometry>
        </mxCell>
        <mxCell id="3ca2uD15W2ncGJFMDEbE-48" value="" style="rounded=1;whiteSpace=wrap;html=1;" vertex="1" parent="3ca2uD15W2ncGJFMDEbE-47">
          <mxGeometry width="300" height="250" as="geometry" />
        </mxCell>
        <mxCell id="3ca2uD15W2ncGJFMDEbE-51" value="&lt;h2&gt;&lt;b&gt;&lt;font style=&quot;font-size: 14px;&quot;&gt;DC&amp;nbsp;&lt;/font&gt;&lt;/b&gt;&lt;b style=&quot;background-color: transparent; color: light-dark(rgb(0, 0, 0), rgb(255, 255, 255)); font-size: 12px;&quot;&gt;&lt;font style=&quot;font-size: 14px;&quot;&gt;Client&lt;/font&gt;&lt;/b&gt;&lt;/h2&gt;" style="aspect=fixed;sketch=0;html=1;dashed=0;whitespace=wrap;verticalLabelPosition=bottom;verticalAlign=top;fillColor=#2875E2;strokeColor=#ffffff;points=[[0.005,0.63,0],[0.1,0.2,0],[0.9,0.2,0],[0.5,0,0],[0.995,0.63,0],[0.72,0.99,0],[0.5,1,0],[0.28,0.99,0]];shape=mxgraph.kubernetes.icon2;prIcon=api" vertex="1" parent="3ca2uD15W2ncGJFMDEbE-47">
          <mxGeometry x="96.67" y="73.8" width="106.67" height="102.4" as="geometry" />
        </mxCell>
        <mxCell id="3ca2uD15W2ncGJFMDEbE-67" value="&lt;h2&gt;Local&lt;/h2&gt;" style="text;html=1;align=center;verticalAlign=middle;whiteSpace=wrap;rounded=0;" vertex="1" parent="3ca2uD15W2ncGJFMDEbE-68">
          <mxGeometry x="345" y="20" width="60" height="30" as="geometry" />
        </mxCell>
        <mxCell id="3ca2uD15W2ncGJFMDEbE-69" value="" style="group" vertex="1" connectable="0" parent="1">
          <mxGeometry x="491" y="47" width="750" height="380" as="geometry" />
        </mxCell>
        <mxCell id="3ca2uD15W2ncGJFMDEbE-70" value="" style="rounded=1;whiteSpace=wrap;html=1;arcSize=16;" vertex="1" parent="3ca2uD15W2ncGJFMDEbE-69">
          <mxGeometry width="750" height="380" as="geometry" />
        </mxCell>
        <mxCell id="3ca2uD15W2ncGJFMDEbE-71" value="" style="group" vertex="1" connectable="0" parent="3ca2uD15W2ncGJFMDEbE-69">
          <mxGeometry x="40" y="80" width="300" height="250" as="geometry" />
        </mxCell>
        <mxCell id="3ca2uD15W2ncGJFMDEbE-72" value="" style="rounded=1;whiteSpace=wrap;html=1;" vertex="1" parent="3ca2uD15W2ncGJFMDEbE-71">
          <mxGeometry width="300" height="250" as="geometry" />
        </mxCell>
        <mxCell id="3ca2uD15W2ncGJFMDEbE-73" value="" style="shape=image;verticalLabelPosition=bottom;labelBackgroundColor=#ffffff;verticalAlign=top;aspect=fixed;imageAspect=0;image=data:image/svg+xml,PHN2ZyB4bWxuczpkYz0iaHR0cDovL3B1cmwub3JnL2RjL2VsZW1lbnRzLzEuMS8iIHhtbG5zOmNjPSJodHRwOi8vY3JlYXRpdmVjb21tb25zLm9yZy9ucyMiIHhtbG5zOnJkZj0iaHR0cDovL3d3dy53My5vcmcvMTk5OS8wMi8yMi1yZGYtc3ludGF4LW5zIyIgeG1sbnM6c3ZnPSJodHRwOi8vd3d3LnczLm9yZy8yMDAwL3N2ZyIgeG1sbnM9Imh0dHA6Ly93d3cudzMub3JnLzIwMDAvc3ZnIiB4bWxuczpzb2RpcG9kaT0iaHR0cDovL3NvZGlwb2RpLnNvdXJjZWZvcmdlLm5ldC9EVEQvc29kaXBvZGktMC5kdGQiIHhtbG5zOmlua3NjYXBlPSJodHRwOi8vd3d3Lmlua3NjYXBlLm9yZy9uYW1lc3BhY2VzL2lua3NjYXBlIiB2ZXJzaW9uPSIxLjEiIGlkPSJzdmc5NzA4NCIgaW5rc2NhcGU6dmVyc2lvbj0iMC45Mi4zICgyNDA1NTQ2LCAyMDE4LTAzLTExKSIgc29kaXBvZGk6ZG9jbmFtZT0ic3FsX2RhdGFiYXNlLnN2ZyIgeD0iMHB4IiB5PSIwcHgiIHZpZXdCb3g9IjAgMCA3NS41MiAxMDAuMTEiIHhtbDpzcGFjZT0icHJlc2VydmUiIHdpZHRoPSI3NS41MTk5OTciIGhlaWdodD0iMTAwLjExIj48bWV0YWRhdGEgaWQ9Im1ldGFkYXRhMTcyNiI+PHJkZjpSREY+PGNjOldvcmsgcmRmOmFib3V0PSIiPjxkYzpmb3JtYXQ+aW1hZ2Uvc3ZnK3htbDwvZGM6Zm9ybWF0PjxkYzp0eXBlIHJkZjpyZXNvdXJjZT0iaHR0cDovL3B1cmwub3JnL2RjL2RjbWl0eXBlL1N0aWxsSW1hZ2UiLz48ZGM6dGl0bGUvPjwvY2M6V29yaz48L3JkZjpSREY+PC9tZXRhZGF0YT48ZGVmcyBpZD0iZGVmczE3MjQiPiYjeGE7CSYjeGE7JiN4YTsJJiN4YTsmI3hhOwkmI3hhOyYjeGE7CSYjeGE7JiN4YTsJJiN4YTsmI3hhOwkmI3hhOyYjeGE7CSYjeGE7JiN4YTsJJiN4YTsmI3hhOwkmI3hhOyYjeGE7CQkmI3hhOwkmI3hhOwkJJiN4YTsJJiN4YTsJCSYjeGE7CSYjeGE7CQkmI3hhOwkmI3hhOwkJJiN4YTsJJiN4YTsJCSYjeGE7CSYjeGE7CQkmI3hhOwkmI3hhOwkJJiN4YTsJPC9kZWZzPiYjeGE7PGZpbHRlciBpZD0iZmlsdGVyXzIiPiYjeGE7CTxmZUdhdXNzaWFuQmx1ciBpZD0iZmVHYXVzc2lhbkJsdXI5NzAwMSIgc3RkRGV2aWF0aW9uPSIyIi8+JiN4YTs8L2ZpbHRlcj4mI3hhOzxzb2RpcG9kaTpuYW1lZHZpZXcgYm9yZGVyY29sb3I9IiM2NjY2NjYiIGJvcmRlcm9wYWNpdHk9IjEiIGZpdC1tYXJnaW4tYm90dG9tPSIwIiBmaXQtbWFyZ2luLWxlZnQ9IjAiIGZpdC1tYXJnaW4tcmlnaHQ9IjAiIGZpdC1tYXJnaW4tdG9wPSIwIiBncmlkdG9sZXJhbmNlPSIxMCIgZ3VpZGV0b2xlcmFuY2U9IjEwIiBpZD0ibmFtZWR2aWV3OTcwODYiIGlua3NjYXBlOmN1cnJlbnQtbGF5ZXI9InN2Zzk3MDg0IiBpbmtzY2FwZTpjeD0iLTQ2LjkyMDI2NSIgaW5rc2NhcGU6Y3k9IjM4LjczMTY2NiIgaW5rc2NhcGU6cGFnZW9wYWNpdHk9IjAiIGlua3NjYXBlOnBhZ2VzaGFkb3c9IjIiIGlua3NjYXBlOndpbmRvdy1oZWlnaHQ9IjEwMTciIGlua3NjYXBlOndpbmRvdy1tYXhpbWl6ZWQ9IjEiIGlua3NjYXBlOndpbmRvdy13aWR0aD0iMTkyMCIgaW5rc2NhcGU6d2luZG93LXg9Ii04IiBpbmtzY2FwZTp3aW5kb3cteT0iLTgiIGlua3NjYXBlOnpvb209IjUuMjE5MzE5NyIgb2JqZWN0dG9sZXJhbmNlPSIxMCIgcGFnZWNvbG9yPSIjZmZmZmZmIiBzaG93Z3JpZD0iZmFsc2UiPiYjeGE7CTwvc29kaXBvZGk6bmFtZWR2aWV3PiYjeGE7JiN4YTs8cGF0aCBpZD0icGF0aDk3MDE0IiBpbmtzY2FwZTpjb25uZWN0b3ItY3VydmF0dXJlPSIwIiBzdHlsZT0iZmlsbDojMDA3MmM2IiBkPSJtIDAsMTMuNjggdiA3Mi43NSBjIDAsNy41NSAxNi45MSwxMy42OCAzNy43NiwxMy42OCBWIDEzLjY4IGMgMCwwIC0zNy43NiwwIC0zNy43NiwwIHoiLz4mI3hhOyYjeGE7PHBhdGggaWQ9InBhdGg5NzAyMiIgaW5rc2NhcGU6Y29ubmVjdG9yLWN1cnZhdHVyZT0iMCIgc3R5bGU9ImZpbGw6IzAwNzJjNiIgZD0ibSAzNy4yNCwxMDAuMTEgaCAwLjUyIGMgMjAuODUsMCAzNy43NiwtNi4xMyAzNy43NiwtMTMuNjggViAxMy42OCBIIDM3LjI0IFoiLz4mI3hhOyYjeGE7PHBhdGggaWQ9InBhdGg5NzAzMCIgaW5rc2NhcGU6Y29ubmVjdG9yLWN1cnZhdHVyZT0iMCIgc3R5bGU9ImZpbGw6I2ZmZmZmZjtmaWxsLW9wYWNpdHk6MC4xNSIgZD0ibSAzNy4yNCwxMDAuMTEgaCAwLjUyIGMgMjAuODUsMCAzNy43NiwtNi4xMyAzNy43NiwtMTMuNjggViAxMy42OCBIIDM3LjI0IFoiLz4mI3hhOyYjeGE7PHBhdGggaWQ9InBhdGg5NzAzOCIgaW5rc2NhcGU6Y29ubmVjdG9yLWN1cnZhdHVyZT0iMCIgc3R5bGU9ImZpbGw6I2ZmZmZmZiIgZD0ibSA3NS41MiwxMy42OCBjIDAsNy41NSAtMTYuOTEsMTMuNjggLTM3Ljc2LDEzLjY4IEMgMTYuOTEsMjcuMzYgMCwyMS4yMyAwLDEzLjY4IDAsNi4xMyAxNi45MSwwIDM3Ljc2LDAgNTguNjEsMCA3NS41Miw2LjEzIDc1LjUyLDEzLjY4IFoiLz4mI3hhOyYjeGE7PHBhdGggaWQ9InBhdGg5NzA0NiIgaW5rc2NhcGU6Y29ubmVjdG9yLWN1cnZhdHVyZT0iMCIgc3R5bGU9ImZpbGw6IzdmYmEwMCIgZD0ibSA2Ny44LDEyLjg5IGMgMCw0Ljk5IC0xMy40NSw5LjAzIC0zMC4wNCw5LjAzIC0xNi41OSwwIC0zMC4wNCwtNC4wNCAtMzAuMDQsLTkuMDMgMCwtNC45OCAxMy40NSwtOS4wMiAzMC4wNCwtOS4wMiAxNi41OSwwIDMwLjA0LDQuMDQgMzAuMDQsOS4wMiB6Ii8+JiN4YTsmI3hhOzxwYXRoIGlkPSJwYXRoOTcwNTQiIGlua3NjYXBlOmNvbm5lY3Rvci1jdXJ2YXR1cmU9IjAiIHN0eWxlPSJmaWxsOiNiOGQ0MzIiIGQ9Ik0gNjEuNTEsMTguNDEgQyA2NS40NCwxNi44OCA2Ny44LDE0Ljk3IDY3LjgsMTIuOSA2Ny44LDcuOTEgNTQuMzUsMy44NyAzNy43NiwzLjg3IDIxLjE3LDMuODcgNy43Miw3LjkxIDcuNzIsMTIuOSBjIDAsMi4wNyAyLjM2LDMuOTggNi4zLDUuNTEgNS40OSwtMi4xNCAxNC4wNywtMy41MSAyMy43NCwtMy41MSA5LjY3LDAgMTguMjUsMS4zNyAyMy43NSwzLjUxIHoiLz4mI3hhOyYjeGE7PHBhdGggaWQ9InBhdGg5NzA2MiIgaW5rc2NhcGU6Y29ubmVjdG9yLWN1cnZhdHVyZT0iMCIgc3R5bGU9ImZpbGw6I2ZmZmZmZiIgZD0ibSAyNS43Nyw2NC4xOCBjIDAsMi4yNiAtMC44Miw0LjAxIC0yLjQ2LDUuMjUgLTEuNjQsMS4yNCAtMy45LDEuODcgLTYuNzksMS44NyAtMi40NiwwIC00LjUyLC0wLjQ1IC02LjE3LC0xLjMzIHYgLTUuMzIgYyAxLjksMS42MSA0LDIuNDIgNi4zLDIuNDIgMS4xLDAgMS45NiwtMC4yMiAyLjU3LC0wLjY2IDAuNiwtMC40NCAwLjksLTEuMDMgMC45LC0xLjc2IDAsLTAuNzIgLTAuMjksLTEuMzUgLTAuODcsLTEuODggLTAuNTgsLTAuNTMgLTEuNzcsLTEuMjIgLTMuNTUsLTIuMDYgLTMuNjMsLTEuNzEgLTUuNDUsLTQuMDQgLTUuNDUsLTYuOTggMCwtMi4xNCAwLjc5LC0zLjg1IDIuMzgsLTUuMTQgMS41OCwtMS4yOSAzLjY5LC0xLjk0IDYuMzEsLTEuOTQgMi4zMywwIDQuMjUsMC4zMSA1Ljc5LDAuOTEgdiA0Ljk3IGMgLTEuNjEsLTEuMTEgLTMuNDQsLTEuNjYgLTUuNDksLTEuNjYgLTEuMDMsMCAtMS44NCwwLjIyIC0yLjQ0LDAuNjYgLTAuNiwwLjQzIC0wLjksMS4wMiAtMC45LDEuNzUgMCwwLjc1IDAuMjQsMS4zNyAwLjczLDEuODUgMC40OCwwLjQ4IDEuNDcsMS4wOCAyLjk2LDEuNzkgMi4yMywxLjA1IDMuODIsMi4xMiA0Ljc2LDMuMjEgMC45NSwxLjA4IDEuNDIsMi40NCAxLjQyLDQuMDUgeiIvPiYjeGE7JiN4YTs8cGF0aCBpZD0icGF0aDk3MDcwIiBpbmtzY2FwZTpjb25uZWN0b3ItY3VydmF0dXJlPSIwIiBzdHlsZT0iZmlsbDojZmZmZmZmIiBkPSJtIDUxLjQxLDU4Ljc5IGMgMCwyLjgxIC0wLjY0LDUuMjQgLTEuOTEsNy4zIC0xLjI4LDIuMDYgLTMuMDcsMy41IC01LjM5LDQuMzQgbCA2LjkyLDYuNCBIIDQ0LjA1IEwgMzkuMTEsNzEuMjkgQyAzNyw3MS4yMSAzNS4wOSw3MC42NSAzMy4zOSw2OS42MSBjIC0xLjcsLTEuMDQgLTMuMDIsLTIuNDcgLTMuOTQsLTQuMjggLTAuOTMsLTEuODEgLTEuMzksLTMuODMgLTEuMzksLTYuMDUgMCwtMi40NyAwLjUsLTQuNjggMS41LC02LjYxIDEuMDEsLTEuOTMgMi40MSwtMy40MiA0LjIzLC00LjQ2IDEuODIsLTEuMDQgMy45LC0xLjU2IDYuMjUsLTEuNTYgMi4xOSwwIDQuMTYsMC41IDUuODksMS41MSAxLjczLDEuMDEgMy4wOCwyLjQ0IDQuMDQsNC4zIDAuOTYsMS44NiAxLjQ0LDMuOTcgMS40NCw2LjMzIHogbSAtNS42NSwwLjMgYyAwLC0yLjQxIC0wLjUyLC00LjMyIC0xLjU4LC01LjcyIC0xLjA1LC0xLjQgLTIuNDksLTIuMSAtNC4zMiwtMi4xIC0xLjg2LDAgLTMuMzUsMC43IC00LjQ3LDIuMSAtMS4xMiwxLjQxIC0xLjY4LDMuMjggLTEuNjgsNS42MiAwLDIuMzMgMC41NSw0LjE5IDEuNjUsNS41OCAxLjA5LDEuMzkgMi41NSwyLjA4IDQuMzYsMi4wOCAxLjg2LDAgMy4zMiwtMC42NyA0LjQxLC0yLjAyIDEuMDksLTEuMzQgMS42MywtMy4xOSAxLjYzLC01LjU0IHoiLz4mI3hhOyYjeGE7PHBhdGggaWQ9InBhdGg5NzA3OCIgaW5rc2NhcGU6Y29ubmVjdG9yLWN1cnZhdHVyZT0iMCIgc3R5bGU9ImZpbGw6I2ZmZmZmZiIgZD0iTSA2OS41NCw3MC44OCBIIDU1LjM1IFYgNDcuMDUgaCA1LjM3IHYgMTkuNDcgaCA4LjgyIHoiLz4mI3hhOzwvc3ZnPg==;" vertex="1" parent="3ca2uD15W2ncGJFMDEbE-71">
          <mxGeometry x="129.5" y="30" width="41" height="53" as="geometry" />
        </mxCell>
        <mxCell id="3ca2uD15W2ncGJFMDEbE-74" style="edgeStyle=orthogonalEdgeStyle;rounded=0;orthogonalLoop=1;jettySize=auto;html=1;entryX=0.5;entryY=1;entryDx=0;entryDy=0;" edge="1" parent="3ca2uD15W2ncGJFMDEbE-71" source="3ca2uD15W2ncGJFMDEbE-75" target="3ca2uD15W2ncGJFMDEbE-73">
          <mxGeometry relative="1" as="geometry" />
        </mxCell>
        <mxCell id="3ca2uD15W2ncGJFMDEbE-75" value="&lt;h2&gt;&lt;b&gt;&lt;font style=&quot;font-size: 14px;&quot;&gt;Schema Contract Repository Service&lt;/font&gt;&lt;/b&gt;&lt;/h2&gt;" style="aspect=fixed;sketch=0;html=1;dashed=0;whitespace=wrap;verticalLabelPosition=bottom;verticalAlign=top;fillColor=#2875E2;strokeColor=#ffffff;points=[[0.005,0.63,0],[0.1,0.2,0],[0.9,0.2,0],[0.5,0,0],[0.995,0.63,0],[0.72,0.99,0],[0.5,1,0],[0.28,0.99,0]];shape=mxgraph.kubernetes.icon2;prIcon=api" vertex="1" parent="3ca2uD15W2ncGJFMDEbE-71">
          <mxGeometry x="125" y="120" width="50" height="48" as="geometry" />
        </mxCell>
        <mxCell id="3ca2uD15W2ncGJFMDEbE-76" value="" style="group" vertex="1" connectable="0" parent="3ca2uD15W2ncGJFMDEbE-69">
          <mxGeometry x="410" y="80" width="300" height="250" as="geometry" />
        </mxCell>
        <mxCell id="3ca2uD15W2ncGJFMDEbE-77" style="edgeStyle=orthogonalEdgeStyle;rounded=0;orthogonalLoop=1;jettySize=auto;html=1;exitX=0;exitY=0.5;exitDx=0;exitDy=0;strokeWidth=3;" edge="1" parent="3ca2uD15W2ncGJFMDEbE-76" source="3ca2uD15W2ncGJFMDEbE-78">
          <mxGeometry relative="1" as="geometry">
            <mxPoint x="-70" y="124.66666666666652" as="targetPoint" />
          </mxGeometry>
        </mxCell>
        <mxCell id="3ca2uD15W2ncGJFMDEbE-78" value="" style="rounded=1;whiteSpace=wrap;html=1;" vertex="1" parent="3ca2uD15W2ncGJFMDEbE-76">
          <mxGeometry width="300" height="250" as="geometry" />
        </mxCell>
        <mxCell id="3ca2uD15W2ncGJFMDEbE-79" value="&lt;h2&gt;&lt;b&gt;&lt;font style=&quot;font-size: 14px;&quot;&gt;DC&amp;nbsp;&lt;/font&gt;&lt;/b&gt;&lt;b style=&quot;background-color: transparent; color: light-dark(rgb(0, 0, 0), rgb(255, 255, 255)); font-size: 12px;&quot;&gt;&lt;font style=&quot;font-size: 14px;&quot;&gt;Client&lt;/font&gt;&lt;/b&gt;&lt;/h2&gt;" style="aspect=fixed;sketch=0;html=1;dashed=0;whitespace=wrap;verticalLabelPosition=bottom;verticalAlign=top;fillColor=#2875E2;strokeColor=#ffffff;points=[[0.005,0.63,0],[0.1,0.2,0],[0.9,0.2,0],[0.5,0,0],[0.995,0.63,0],[0.72,0.99,0],[0.5,1,0],[0.28,0.99,0]];shape=mxgraph.kubernetes.icon2;prIcon=api" vertex="1" parent="3ca2uD15W2ncGJFMDEbE-76">
          <mxGeometry x="96.67" y="73.8" width="106.67" height="102.4" as="geometry" />
        </mxCell>
        <mxCell id="3ca2uD15W2ncGJFMDEbE-80" value="&lt;h2&gt;QA&lt;/h2&gt;" style="text;html=1;align=center;verticalAlign=middle;whiteSpace=wrap;rounded=0;" vertex="1" parent="3ca2uD15W2ncGJFMDEbE-69">
          <mxGeometry x="345" y="20" width="60" height="30" as="geometry" />
        </mxCell>
        <mxCell id="3ca2uD15W2ncGJFMDEbE-81" value="" style="group" vertex="1" connectable="0" parent="1">
          <mxGeometry x="491" y="476" width="750" height="380" as="geometry" />
        </mxCell>
        <mxCell id="3ca2uD15W2ncGJFMDEbE-82" value="" style="rounded=1;whiteSpace=wrap;html=1;arcSize=16;" vertex="1" parent="3ca2uD15W2ncGJFMDEbE-81">
          <mxGeometry width="750" height="380" as="geometry" />
        </mxCell>
        <mxCell id="3ca2uD15W2ncGJFMDEbE-83" value="" style="group" vertex="1" connectable="0" parent="3ca2uD15W2ncGJFMDEbE-81">
          <mxGeometry x="40" y="80" width="300" height="250" as="geometry" />
        </mxCell>
        <mxCell id="3ca2uD15W2ncGJFMDEbE-84" value="" style="rounded=1;whiteSpace=wrap;html=1;" vertex="1" parent="3ca2uD15W2ncGJFMDEbE-83">
          <mxGeometry width="300" height="250" as="geometry" />
        </mxCell>
        <mxCell id="3ca2uD15W2ncGJFMDEbE-85" value="" style="shape=image;verticalLabelPosition=bottom;labelBackgroundColor=#ffffff;verticalAlign=top;aspect=fixed;imageAspect=0;image=data:image/svg+xml,PHN2ZyB4bWxuczpkYz0iaHR0cDovL3B1cmwub3JnL2RjL2VsZW1lbnRzLzEuMS8iIHhtbG5zOmNjPSJodHRwOi8vY3JlYXRpdmVjb21tb25zLm9yZy9ucyMiIHhtbG5zOnJkZj0iaHR0cDovL3d3dy53My5vcmcvMTk5OS8wMi8yMi1yZGYtc3ludGF4LW5zIyIgeG1sbnM6c3ZnPSJodHRwOi8vd3d3LnczLm9yZy8yMDAwL3N2ZyIgeG1sbnM9Imh0dHA6Ly93d3cudzMub3JnLzIwMDAvc3ZnIiB4bWxuczpzb2RpcG9kaT0iaHR0cDovL3NvZGlwb2RpLnNvdXJjZWZvcmdlLm5ldC9EVEQvc29kaXBvZGktMC5kdGQiIHhtbG5zOmlua3NjYXBlPSJodHRwOi8vd3d3Lmlua3NjYXBlLm9yZy9uYW1lc3BhY2VzL2lua3NjYXBlIiB2ZXJzaW9uPSIxLjEiIGlkPSJzdmc5NzA4NCIgaW5rc2NhcGU6dmVyc2lvbj0iMC45Mi4zICgyNDA1NTQ2LCAyMDE4LTAzLTExKSIgc29kaXBvZGk6ZG9jbmFtZT0ic3FsX2RhdGFiYXNlLnN2ZyIgeD0iMHB4IiB5PSIwcHgiIHZpZXdCb3g9IjAgMCA3NS41MiAxMDAuMTEiIHhtbDpzcGFjZT0icHJlc2VydmUiIHdpZHRoPSI3NS41MTk5OTciIGhlaWdodD0iMTAwLjExIj48bWV0YWRhdGEgaWQ9Im1ldGFkYXRhMTcyNiI+PHJkZjpSREY+PGNjOldvcmsgcmRmOmFib3V0PSIiPjxkYzpmb3JtYXQ+aW1hZ2Uvc3ZnK3htbDwvZGM6Zm9ybWF0PjxkYzp0eXBlIHJkZjpyZXNvdXJjZT0iaHR0cDovL3B1cmwub3JnL2RjL2RjbWl0eXBlL1N0aWxsSW1hZ2UiLz48ZGM6dGl0bGUvPjwvY2M6V29yaz48L3JkZjpSREY+PC9tZXRhZGF0YT48ZGVmcyBpZD0iZGVmczE3MjQiPiYjeGE7CSYjeGE7JiN4YTsJJiN4YTsmI3hhOwkmI3hhOyYjeGE7CSYjeGE7JiN4YTsJJiN4YTsmI3hhOwkmI3hhOyYjeGE7CSYjeGE7JiN4YTsJJiN4YTsmI3hhOwkmI3hhOyYjeGE7CQkmI3hhOwkmI3hhOwkJJiN4YTsJJiN4YTsJCSYjeGE7CSYjeGE7CQkmI3hhOwkmI3hhOwkJJiN4YTsJJiN4YTsJCSYjeGE7CSYjeGE7CQkmI3hhOwkmI3hhOwkJJiN4YTsJPC9kZWZzPiYjeGE7PGZpbHRlciBpZD0iZmlsdGVyXzIiPiYjeGE7CTxmZUdhdXNzaWFuQmx1ciBpZD0iZmVHYXVzc2lhbkJsdXI5NzAwMSIgc3RkRGV2aWF0aW9uPSIyIi8+JiN4YTs8L2ZpbHRlcj4mI3hhOzxzb2RpcG9kaTpuYW1lZHZpZXcgYm9yZGVyY29sb3I9IiM2NjY2NjYiIGJvcmRlcm9wYWNpdHk9IjEiIGZpdC1tYXJnaW4tYm90dG9tPSIwIiBmaXQtbWFyZ2luLWxlZnQ9IjAiIGZpdC1tYXJnaW4tcmlnaHQ9IjAiIGZpdC1tYXJnaW4tdG9wPSIwIiBncmlkdG9sZXJhbmNlPSIxMCIgZ3VpZGV0b2xlcmFuY2U9IjEwIiBpZD0ibmFtZWR2aWV3OTcwODYiIGlua3NjYXBlOmN1cnJlbnQtbGF5ZXI9InN2Zzk3MDg0IiBpbmtzY2FwZTpjeD0iLTQ2LjkyMDI2NSIgaW5rc2NhcGU6Y3k9IjM4LjczMTY2NiIgaW5rc2NhcGU6cGFnZW9wYWNpdHk9IjAiIGlua3NjYXBlOnBhZ2VzaGFkb3c9IjIiIGlua3NjYXBlOndpbmRvdy1oZWlnaHQ9IjEwMTciIGlua3NjYXBlOndpbmRvdy1tYXhpbWl6ZWQ9IjEiIGlua3NjYXBlOndpbmRvdy13aWR0aD0iMTkyMCIgaW5rc2NhcGU6d2luZG93LXg9Ii04IiBpbmtzY2FwZTp3aW5kb3cteT0iLTgiIGlua3NjYXBlOnpvb209IjUuMjE5MzE5NyIgb2JqZWN0dG9sZXJhbmNlPSIxMCIgcGFnZWNvbG9yPSIjZmZmZmZmIiBzaG93Z3JpZD0iZmFsc2UiPiYjeGE7CTwvc29kaXBvZGk6bmFtZWR2aWV3PiYjeGE7JiN4YTs8cGF0aCBpZD0icGF0aDk3MDE0IiBpbmtzY2FwZTpjb25uZWN0b3ItY3VydmF0dXJlPSIwIiBzdHlsZT0iZmlsbDojMDA3MmM2IiBkPSJtIDAsMTMuNjggdiA3Mi43NSBjIDAsNy41NSAxNi45MSwxMy42OCAzNy43NiwxMy42OCBWIDEzLjY4IGMgMCwwIC0zNy43NiwwIC0zNy43NiwwIHoiLz4mI3hhOyYjeGE7PHBhdGggaWQ9InBhdGg5NzAyMiIgaW5rc2NhcGU6Y29ubmVjdG9yLWN1cnZhdHVyZT0iMCIgc3R5bGU9ImZpbGw6IzAwNzJjNiIgZD0ibSAzNy4yNCwxMDAuMTEgaCAwLjUyIGMgMjAuODUsMCAzNy43NiwtNi4xMyAzNy43NiwtMTMuNjggViAxMy42OCBIIDM3LjI0IFoiLz4mI3hhOyYjeGE7PHBhdGggaWQ9InBhdGg5NzAzMCIgaW5rc2NhcGU6Y29ubmVjdG9yLWN1cnZhdHVyZT0iMCIgc3R5bGU9ImZpbGw6I2ZmZmZmZjtmaWxsLW9wYWNpdHk6MC4xNSIgZD0ibSAzNy4yNCwxMDAuMTEgaCAwLjUyIGMgMjAuODUsMCAzNy43NiwtNi4xMyAzNy43NiwtMTMuNjggViAxMy42OCBIIDM3LjI0IFoiLz4mI3hhOyYjeGE7PHBhdGggaWQ9InBhdGg5NzAzOCIgaW5rc2NhcGU6Y29ubmVjdG9yLWN1cnZhdHVyZT0iMCIgc3R5bGU9ImZpbGw6I2ZmZmZmZiIgZD0ibSA3NS41MiwxMy42OCBjIDAsNy41NSAtMTYuOTEsMTMuNjggLTM3Ljc2LDEzLjY4IEMgMTYuOTEsMjcuMzYgMCwyMS4yMyAwLDEzLjY4IDAsNi4xMyAxNi45MSwwIDM3Ljc2LDAgNTguNjEsMCA3NS41Miw2LjEzIDc1LjUyLDEzLjY4IFoiLz4mI3hhOyYjeGE7PHBhdGggaWQ9InBhdGg5NzA0NiIgaW5rc2NhcGU6Y29ubmVjdG9yLWN1cnZhdHVyZT0iMCIgc3R5bGU9ImZpbGw6IzdmYmEwMCIgZD0ibSA2Ny44LDEyLjg5IGMgMCw0Ljk5IC0xMy40NSw5LjAzIC0zMC4wNCw5LjAzIC0xNi41OSwwIC0zMC4wNCwtNC4wNCAtMzAuMDQsLTkuMDMgMCwtNC45OCAxMy40NSwtOS4wMiAzMC4wNCwtOS4wMiAxNi41OSwwIDMwLjA0LDQuMDQgMzAuMDQsOS4wMiB6Ii8+JiN4YTsmI3hhOzxwYXRoIGlkPSJwYXRoOTcwNTQiIGlua3NjYXBlOmNvbm5lY3Rvci1jdXJ2YXR1cmU9IjAiIHN0eWxlPSJmaWxsOiNiOGQ0MzIiIGQ9Ik0gNjEuNTEsMTguNDEgQyA2NS40NCwxNi44OCA2Ny44LDE0Ljk3IDY3LjgsMTIuOSA2Ny44LDcuOTEgNTQuMzUsMy44NyAzNy43NiwzLjg3IDIxLjE3LDMuODcgNy43Miw3LjkxIDcuNzIsMTIuOSBjIDAsMi4wNyAyLjM2LDMuOTggNi4zLDUuNTEgNS40OSwtMi4xNCAxNC4wNywtMy41MSAyMy43NCwtMy41MSA5LjY3LDAgMTguMjUsMS4zNyAyMy43NSwzLjUxIHoiLz4mI3hhOyYjeGE7PHBhdGggaWQ9InBhdGg5NzA2MiIgaW5rc2NhcGU6Y29ubmVjdG9yLWN1cnZhdHVyZT0iMCIgc3R5bGU9ImZpbGw6I2ZmZmZmZiIgZD0ibSAyNS43Nyw2NC4xOCBjIDAsMi4yNiAtMC44Miw0LjAxIC0yLjQ2LDUuMjUgLTEuNjQsMS4yNCAtMy45LDEuODcgLTYuNzksMS44NyAtMi40NiwwIC00LjUyLC0wLjQ1IC02LjE3LC0xLjMzIHYgLTUuMzIgYyAxLjksMS42MSA0LDIuNDIgNi4zLDIuNDIgMS4xLDAgMS45NiwtMC4yMiAyLjU3LC0wLjY2IDAuNiwtMC40NCAwLjksLTEuMDMgMC45LC0xLjc2IDAsLTAuNzIgLTAuMjksLTEuMzUgLTAuODcsLTEuODggLTAuNTgsLTAuNTMgLTEuNzcsLTEuMjIgLTMuNTUsLTIuMDYgLTMuNjMsLTEuNzEgLTUuNDUsLTQuMDQgLTUuNDUsLTYuOTggMCwtMi4xNCAwLjc5LC0zLjg1IDIuMzgsLTUuMTQgMS41OCwtMS4yOSAzLjY5LC0xLjk0IDYuMzEsLTEuOTQgMi4zMywwIDQuMjUsMC4zMSA1Ljc5LDAuOTEgdiA0Ljk3IGMgLTEuNjEsLTEuMTEgLTMuNDQsLTEuNjYgLTUuNDksLTEuNjYgLTEuMDMsMCAtMS44NCwwLjIyIC0yLjQ0LDAuNjYgLTAuNiwwLjQzIC0wLjksMS4wMiAtMC45LDEuNzUgMCwwLjc1IDAuMjQsMS4zNyAwLjczLDEuODUgMC40OCwwLjQ4IDEuNDcsMS4wOCAyLjk2LDEuNzkgMi4yMywxLjA1IDMuODIsMi4xMiA0Ljc2LDMuMjEgMC45NSwxLjA4IDEuNDIsMi40NCAxLjQyLDQuMDUgeiIvPiYjeGE7JiN4YTs8cGF0aCBpZD0icGF0aDk3MDcwIiBpbmtzY2FwZTpjb25uZWN0b3ItY3VydmF0dXJlPSIwIiBzdHlsZT0iZmlsbDojZmZmZmZmIiBkPSJtIDUxLjQxLDU4Ljc5IGMgMCwyLjgxIC0wLjY0LDUuMjQgLTEuOTEsNy4zIC0xLjI4LDIuMDYgLTMuMDcsMy41IC01LjM5LDQuMzQgbCA2LjkyLDYuNCBIIDQ0LjA1IEwgMzkuMTEsNzEuMjkgQyAzNyw3MS4yMSAzNS4wOSw3MC42NSAzMy4zOSw2OS42MSBjIC0xLjcsLTEuMDQgLTMuMDIsLTIuNDcgLTMuOTQsLTQuMjggLTAuOTMsLTEuODEgLTEuMzksLTMuODMgLTEuMzksLTYuMDUgMCwtMi40NyAwLjUsLTQuNjggMS41LC02LjYxIDEuMDEsLTEuOTMgMi40MSwtMy40MiA0LjIzLC00LjQ2IDEuODIsLTEuMDQgMy45LC0xLjU2IDYuMjUsLTEuNTYgMi4xOSwwIDQuMTYsMC41IDUuODksMS41MSAxLjczLDEuMDEgMy4wOCwyLjQ0IDQuMDQsNC4zIDAuOTYsMS44NiAxLjQ0LDMuOTcgMS40NCw2LjMzIHogbSAtNS42NSwwLjMgYyAwLC0yLjQxIC0wLjUyLC00LjMyIC0xLjU4LC01LjcyIC0xLjA1LC0xLjQgLTIuNDksLTIuMSAtNC4zMiwtMi4xIC0xLjg2LDAgLTMuMzUsMC43IC00LjQ3LDIuMSAtMS4xMiwxLjQxIC0xLjY4LDMuMjggLTEuNjgsNS42MiAwLDIuMzMgMC41NSw0LjE5IDEuNjUsNS41OCAxLjA5LDEuMzkgMi41NSwyLjA4IDQuMzYsMi4wOCAxLjg2LDAgMy4zMiwtMC42NyA0LjQxLC0yLjAyIDEuMDksLTEuMzQgMS42MywtMy4xOSAxLjYzLC01LjU0IHoiLz4mI3hhOyYjeGE7PHBhdGggaWQ9InBhdGg5NzA3OCIgaW5rc2NhcGU6Y29ubmVjdG9yLWN1cnZhdHVyZT0iMCIgc3R5bGU9ImZpbGw6I2ZmZmZmZiIgZD0iTSA2OS41NCw3MC44OCBIIDU1LjM1IFYgNDcuMDUgaCA1LjM3IHYgMTkuNDcgaCA4LjgyIHoiLz4mI3hhOzwvc3ZnPg==;" vertex="1" parent="3ca2uD15W2ncGJFMDEbE-83">
          <mxGeometry x="129.5" y="30" width="41" height="53" as="geometry" />
        </mxCell>
        <mxCell id="3ca2uD15W2ncGJFMDEbE-86" style="edgeStyle=orthogonalEdgeStyle;rounded=0;orthogonalLoop=1;jettySize=auto;html=1;entryX=0.5;entryY=1;entryDx=0;entryDy=0;" edge="1" parent="3ca2uD15W2ncGJFMDEbE-83" source="3ca2uD15W2ncGJFMDEbE-87" target="3ca2uD15W2ncGJFMDEbE-85">
          <mxGeometry relative="1" as="geometry" />
        </mxCell>
        <mxCell id="3ca2uD15W2ncGJFMDEbE-87" value="&lt;h2&gt;&lt;b&gt;&lt;font style=&quot;font-size: 14px;&quot;&gt;Schema Contract Repository Service&lt;/font&gt;&lt;/b&gt;&lt;/h2&gt;" style="aspect=fixed;sketch=0;html=1;dashed=0;whitespace=wrap;verticalLabelPosition=bottom;verticalAlign=top;fillColor=#2875E2;strokeColor=#ffffff;points=[[0.005,0.63,0],[0.1,0.2,0],[0.9,0.2,0],[0.5,0,0],[0.995,0.63,0],[0.72,0.99,0],[0.5,1,0],[0.28,0.99,0]];shape=mxgraph.kubernetes.icon2;prIcon=api" vertex="1" parent="3ca2uD15W2ncGJFMDEbE-83">
          <mxGeometry x="125" y="120" width="50" height="48" as="geometry" />
        </mxCell>
        <mxCell id="3ca2uD15W2ncGJFMDEbE-88" value="" style="group" vertex="1" connectable="0" parent="3ca2uD15W2ncGJFMDEbE-81">
          <mxGeometry x="410" y="80" width="300" height="250" as="geometry" />
        </mxCell>
        <mxCell id="3ca2uD15W2ncGJFMDEbE-89" style="edgeStyle=orthogonalEdgeStyle;rounded=0;orthogonalLoop=1;jettySize=auto;html=1;exitX=0;exitY=0.5;exitDx=0;exitDy=0;strokeWidth=3;" edge="1" parent="3ca2uD15W2ncGJFMDEbE-88" source="3ca2uD15W2ncGJFMDEbE-90">
          <mxGeometry relative="1" as="geometry">
            <mxPoint x="-70" y="124.66666666666652" as="targetPoint" />
          </mxGeometry>
        </mxCell>
        <mxCell id="3ca2uD15W2ncGJFMDEbE-90" value="" style="rounded=1;whiteSpace=wrap;html=1;" vertex="1" parent="3ca2uD15W2ncGJFMDEbE-88">
          <mxGeometry width="300" height="250" as="geometry" />
        </mxCell>
        <mxCell id="3ca2uD15W2ncGJFMDEbE-91" value="&lt;h2&gt;&lt;b&gt;&lt;font style=&quot;font-size: 14px;&quot;&gt;DC&amp;nbsp;&lt;/font&gt;&lt;/b&gt;&lt;b style=&quot;background-color: transparent; color: light-dark(rgb(0, 0, 0), rgb(255, 255, 255)); font-size: 12px;&quot;&gt;&lt;font style=&quot;font-size: 14px;&quot;&gt;Client&lt;/font&gt;&lt;/b&gt;&lt;/h2&gt;" style="aspect=fixed;sketch=0;html=1;dashed=0;whitespace=wrap;verticalLabelPosition=bottom;verticalAlign=top;fillColor=#2875E2;strokeColor=#ffffff;points=[[0.005,0.63,0],[0.1,0.2,0],[0.9,0.2,0],[0.5,0,0],[0.995,0.63,0],[0.72,0.99,0],[0.5,1,0],[0.28,0.99,0]];shape=mxgraph.kubernetes.icon2;prIcon=api" vertex="1" parent="3ca2uD15W2ncGJFMDEbE-88">
          <mxGeometry x="96.67" y="73.8" width="106.67" height="102.4" as="geometry" />
        </mxCell>
        <mxCell id="3ca2uD15W2ncGJFMDEbE-92" value="&lt;h2&gt;Sand/Prod&lt;/h2&gt;" style="text;html=1;align=center;verticalAlign=middle;whiteSpace=wrap;rounded=0;" vertex="1" parent="3ca2uD15W2ncGJFMDEbE-81">
          <mxGeometry x="345" y="20" width="60" height="30" as="geometry" />
        </mxCell>
        <mxCell id="3ca2uD15W2ncGJFMDEbE-94" style="edgeStyle=orthogonalEdgeStyle;rounded=0;orthogonalLoop=1;jettySize=auto;html=1;entryX=0.494;entryY=-0.02;entryDx=0;entryDy=0;entryPerimeter=0;strokeWidth=3;" edge="1" parent="1" source="3ca2uD15W2ncGJFMDEbE-65" target="3ca2uD15W2ncGJFMDEbE-9">
          <mxGeometry relative="1" as="geometry" />
        </mxCell>
        <mxCell id="3ca2uD15W2ncGJFMDEbE-95" style="edgeStyle=orthogonalEdgeStyle;rounded=0;orthogonalLoop=1;jettySize=auto;html=1;entryX=1.002;entryY=0.482;entryDx=0;entryDy=0;entryPerimeter=0;strokeWidth=3;" edge="1" parent="1" source="3ca2uD15W2ncGJFMDEbE-70" target="3ca2uD15W2ncGJFMDEbE-1">
          <mxGeometry relative="1" as="geometry" />
        </mxCell>
        <mxCell id="3ca2uD15W2ncGJFMDEbE-96" style="edgeStyle=orthogonalEdgeStyle;rounded=0;orthogonalLoop=1;jettySize=auto;html=1;entryX=0.532;entryY=0.992;entryDx=0;entryDy=0;entryPerimeter=0;strokeWidth=3;" edge="1" parent="1" source="3ca2uD15W2ncGJFMDEbE-82" target="3ca2uD15W2ncGJFMDEbE-3">
          <mxGeometry relative="1" as="geometry" />
        </mxCell>
        <mxCell id="3ca2uD15W2ncGJFMDEbE-97" value="&lt;h2&gt;Sending NuGet via PAT&lt;/h2&gt;" style="text;html=1;align=center;verticalAlign=middle;whiteSpace=wrap;rounded=0;" vertex="1" parent="1">
          <mxGeometry x="250" y="-250" width="210" height="30" as="geometry" />
        </mxCell>
        <mxCell id="3ca2uD15W2ncGJFMDEbE-99" value="&lt;h2&gt;Sending NuGet via PAT&lt;/h2&gt;" style="text;html=1;align=center;verticalAlign=middle;whiteSpace=wrap;rounded=0;" vertex="1" parent="1">
          <mxGeometry x="270" y="183" width="210" height="30" as="geometry" />
        </mxCell>
        <mxCell id="3ca2uD15W2ncGJFMDEbE-100" value="&lt;h2&gt;Sending NuGet via PAT&lt;/h2&gt;" style="text;html=1;align=center;verticalAlign=middle;whiteSpace=wrap;rounded=0;" vertex="1" parent="1">
          <mxGeometry x="260" y="690" width="210" height="30" as="geometry" />
        </mxCell>
      </root>
    </mxGraphModel>
  </diagram>
</mxfile>
